<svg xmlns="http://www.w3.org/2000/svg" viewBox="0 0 512 512">
  <circle cx="256" cy="256" r="256" fill="#E31E24"/>
  <!-- Crown shape matching Royal Tyres logo: 3 rounded arches with teardrop holes, curved base band -->
  <path d="
    M 110 330
    C 110 330 112 270 120 250
    C 128 230 138 220 150 222
    C 162 224 166 238 168 252
    C 170 266 172 286 178 292
    C 184 298 192 292 196 278
    C 200 264 206 230 210 210
    C 214 190 224 178 256 178
    C 288 178 298 190 302 210
    C 306 230 312 264 316 278
    C 320 292 328 298 334 292
    C 340 286 342 266 344 252
    C 346 238 350 224 362 222
    C 374 220 384 230 392 250
    C 400 270 402 330 402 330
    Z
  " fill="white"/>
  <!-- Left teardrop hole -->
  <path d="M 158 248 C 158 248 160 268 167 274 C 174 280 180 270 178 258 C 176 246 168 238 162 240 C 158 242 158 248 158 248 Z" fill="#E31E24"/>
  <!-- Center teardrop hole -->
  <path d="M 244 202 C 240 202 234 210 234 224 C 234 238 242 250 256 252 C 270 250 278 238 278 224 C 278 210 272 202 268 202 C 264 202 260 208 256 208 C 252 208 248 202 244 202 Z" fill="#E31E24"/>
  <!-- Right teardrop hole -->
  <path d="M 354 248 C 354 248 354 242 350 240 C 344 238 336 246 334 258 C 332 270 338 280 345 274 C 352 268 354 248 354 248 Z" fill="#E31E24"/>
  <!-- Base band 1 -->
  <path d="M 108 342 Q 256 368 404 342 L 402 330 L 110 330 Z" fill="white"/>
  <!-- Base bar 2 -->
  <rect x="108" y="354" width="296" height="22" rx="11" fill="white"/>
  <!-- Base bar 3 -->
  <rect x="118" y="386" width="276" height="20" rx="10" fill="white"/>
</svg>
